<svg data-v-423bf9ae="" xmlns="http://www.w3.org/2000/svg" viewBox="0 0 395 99" class="iconLeft"><!----><!----><!----><g data-v-423bf9ae="" id="331d45b1-f798-4a2d-bd04-009551a3df75" fill="white" transform="matrix(4.282655176286797,0,0,4.282655176286797,121.54569646845206,-8.434907713488236)"><path d="M5.33 14.25L5.33 11.88L5.33 11.88Q5.09 11.76 4.80 11.68L4.80 11.68L4.80 11.68Q4.50 11.61 4.27 11.61L4.27 11.61L4.27 11.61Q3.82 11.61 3.50 11.80L3.50 11.80L3.50 11.80Q3.18 11.98 2.98 12.29L2.98 12.29L2.98 12.29Q2.78 12.60 2.69 12.99L2.69 12.99L2.69 12.99Q2.60 13.38 2.60 13.77L2.60 13.77L2.60 13.77Q2.60 14.27 2.68 14.60L2.68 14.60L2.68 14.60Q2.77 14.94 2.92 15.13L2.92 15.13L2.92 15.13Q3.07 15.33 3.27 15.42L3.27 15.42L3.27 15.42Q3.48 15.50 3.73 15.50L3.73 15.50L3.73 15.50Q3.91 15.50 4.13 15.42L4.13 15.42L4.13 15.42Q4.34 15.33 4.56 15.17L4.56 15.17L4.56 15.17Q4.77 15.01 4.97 14.78L4.97 14.78L4.97 14.78Q5.17 14.55 5.33 14.25L5.33 14.25ZM7.25 10.49L7.25 16.92L7.25 16.92Q7.25 17.82 6.96 18.46L6.96 18.46L6.96 18.46Q6.67 19.11 6.19 19.51L6.19 19.51L6.19 19.51Q5.71 19.92 5.11 20.11L5.11 20.11L5.11 20.11Q4.51 20.30 3.90 20.30L3.90 20.30L3.90 20.30Q3.54 20.30 3.17 20.24L3.17 20.24L3.17 20.24Q2.79 20.17 2.42 20.06L2.42 20.06L2.42 20.06Q2.05 19.94 1.70 19.78L1.70 19.78L1.70 19.78Q1.35 19.61 1.06 19.41L1.06 19.41L1.64 17.99L1.64 17.99Q2.13 18.33 2.62 18.55L2.62 18.55L2.62 18.55Q3.11 18.77 3.62 18.77L3.62 18.77L3.62 18.77Q3.87 18.77 4.17 18.70L4.17 18.70L4.17 18.70Q4.46 18.62 4.72 18.44L4.72 18.44L4.72 18.44Q4.98 18.25 5.16 17.94L5.16 17.94L5.16 17.94Q5.33 17.63 5.33 17.16L5.33 17.16L5.33 15.89L5.33 15.89Q5.07 16.21 4.79 16.44L4.79 16.44L4.79 16.44Q4.50 16.67 4.20 16.83L4.20 16.83L4.20 16.83Q3.90 16.98 3.61 17.05L3.61 17.05L3.61 17.05Q3.32 17.12 3.04 17.12L3.04 17.12L3.04 17.12Q2.58 17.12 2.16 16.96L2.16 16.96L2.16 16.96Q1.73 16.80 1.40 16.44L1.40 16.44L1.40 16.44Q1.07 16.08 0.88 15.50L0.88 15.50L0.88 15.50Q0.68 14.93 0.68 14.12L0.68 14.12L0.68 14.12Q0.68 13.33 0.90 12.58L0.90 12.58L0.90 12.58Q1.12 11.84 1.59 11.26L1.59 11.26L1.59 11.26Q2.06 10.68 2.78 10.33L2.78 10.33L2.78 10.33Q3.51 9.98 4.52 9.98L4.52 9.98L4.52 9.98Q4.85 9.98 5.21 10.02L5.21 10.02L5.21 10.02Q5.56 10.07 5.92 10.14L5.92 10.14L5.92 10.14Q6.27 10.22 6.61 10.31L6.61 10.31L6.61 10.31Q6.95 10.40 7.25 10.49L7.25 10.49ZM13.71 12.10L13.71 11.65L13.71 11.65Q13.56 11.61 13.29 11.56L13.29 11.56L13.29 11.56Q13.02 11.51 12.58 11.51L12.58 11.51L12.58 11.51Q12.04 11.51 11.68 11.74L11.68 11.74L11.68 11.74Q11.31 11.98 11.10 12.37L11.10 12.37L11.10 12.37Q10.88 12.76 10.79 13.25L10.79 13.25L10.79 13.25Q10.70 13.75 10.70 14.29L10.70 14.29L10.70 14.29Q10.70 14.59 10.76 14.83L10.76 14.83L10.76 14.83Q10.81 15.08 10.92 15.26L10.92 15.26L10.92 15.26Q11.02 15.44 11.16 15.53L11.16 15.53L11.16 15.53Q11.29 15.63 11.45 15.63L11.45 15.63L11.45 15.63Q11.70 15.63 11.97 15.43L11.97 15.43L11.97 15.43Q12.24 15.22 12.49 14.89L12.49 14.89L12.49 14.89Q12.74 14.56 12.96 14.16L12.96 14.16L12.96 14.16Q13.18 13.75 13.35 13.36L13.35 13.36L13.35 13.36Q13.51 12.97 13.61 12.63L13.61 12.63L13.61 12.63Q13.71 12.30 13.71 12.10L13.71 12.10ZM16.11 17.09L14.29 17.09L14.29 17.09Q14.21 16.97 14.14 16.71L14.14 16.71L14.14 16.71Q14.08 16.45 14.02 16.16L14.02 16.16L14.02 16.16Q13.97 15.86 13.94 15.57L13.94 15.57L13.94 15.57Q13.91 15.28 13.91 15.09L13.91 15.09L13.91 14.70L13.91 14.70Q13.69 15.14 13.39 15.60L13.39 15.60L13.39 15.60Q13.08 16.05 12.69 16.42L12.69 16.42L12.69 16.42Q12.30 16.79 11.84 17.02L11.84 17.02L11.84 17.02Q11.37 17.26 10.83 17.26L10.83 17.26L10.83 17.26Q10.40 17.26 10.03 17.07L10.03 17.07L10.03 17.07Q9.65 16.88 9.38 16.50L9.38 16.50L9.38 16.50Q9.10 16.13 8.94 15.57L8.94 15.57L8.94 15.57Q8.78 15.01 8.78 14.29L8.78 14.29L8.78 14.29Q8.78 13.47 9.02 12.70L9.02 12.70L9.02 12.70Q9.26 11.92 9.76 11.32L9.76 11.32L9.76 11.32Q10.26 10.71 11.03 10.35L11.03 10.35L11.03 10.35Q11.81 9.98 12.87 9.98L12.87 9.98L12.87 9.98Q13.61 9.98 14.34 10.07L14.34 10.07L14.34 10.07Q15.07 10.15 15.66 10.29L15.66 10.29L15.66 13.47L15.66 13.47Q15.66 14.76 15.78 15.64L15.78 15.64L15.78 15.64Q15.91 16.52 16.11 17.09L16.11 17.09ZM17.47 10.12L19.25 10.12L19.25 10.12Q19.30 10.22 19.35 10.34L19.35 10.34L19.35 10.34Q19.40 10.47 19.44 10.60L19.44 10.60L19.44 10.60Q19.48 10.73 19.51 10.86L19.51 10.86L19.51 10.86Q19.54 10.99 19.57 11.11L19.57 11.11L19.57 11.11Q19.89 10.77 20.17 10.55L20.17 10.55L20.17 10.55Q20.46 10.33 20.74 10.20L20.74 10.20L20.74 10.20Q21.02 10.08 21.30 10.03L21.30 10.03L21.30 10.03Q21.58 9.98 21.88 9.98L21.88 9.98L21.88 9.98Q22.22 9.98 22.49 10.08L22.49 10.08L22.49 10.08Q22.76 10.17 22.97 10.33L22.97 10.33L22.97 10.33Q23.18 10.49 23.33 10.69L23.33 10.69L23.33 10.69Q23.48 10.90 23.56 11.13L23.56 11.13L23.56 11.13Q23.88 10.78 24.19 10.56L24.19 10.56L24.19 10.56Q24.49 10.34 24.77 10.21L24.77 10.21L24.77 10.21Q25.06 10.08 25.34 10.03L25.34 10.03L25.34 10.03Q25.61 9.98 25.88 9.98L25.88 9.98L25.88 9.98Q26.40 9.98 26.76 10.15L26.76 10.15L26.76 10.15Q27.11 10.32 27.33 10.64L27.33 10.64L27.33 10.64Q27.54 10.97 27.63 11.46L27.63 11.46L27.63 11.46Q27.73 11.94 27.73 12.58L27.73 12.58L27.73 17.09L25.81 17.09L25.81 13.33L25.81 13.33Q25.81 12.82 25.77 12.49L25.77 12.49L25.77 12.49Q25.74 12.16 25.65 11.98L25.65 11.98L25.65 11.98Q25.56 11.79 25.41 11.72L25.41 11.72L25.41 11.72Q25.26 11.66 25.03 11.66L25.03 11.66L25.03 11.66Q24.65 11.66 24.30 11.90L24.30 11.90L24.30 11.90Q23.95 12.15 23.73 12.58L23.73 12.58L23.73 17.09L21.81 17.09L21.81 13.19L21.81 13.19Q21.81 12.71 21.78 12.41L21.78 12.41L21.78 12.41Q21.74 12.11 21.65 11.94L21.65 11.94L21.65 11.94Q21.55 11.77 21.40 11.71L21.40 11.71L21.40 11.71Q21.25 11.66 21.03 11.66L21.03 11.66L21.03 11.66Q20.84 11.66 20.64 11.73L20.64 11.73L20.64 11.73Q20.45 11.81 20.29 11.95L20.29 11.95L20.29 11.95Q20.12 12.09 19.97 12.29L19.97 12.29L19.97 12.29Q19.83 12.48 19.73 12.71L19.73 12.71L19.73 17.09L17.81 17.09L17.81 12.89L17.81 12.89Q17.81 11.87 17.70 11.17L17.70 11.17L17.70 11.17Q17.58 10.47 17.47 10.12L17.47 10.12ZM35.62 14.01L31.21 14.01L31.21 14.01Q31.27 14.90 31.71 15.30L31.71 15.30L31.71 15.30Q32.14 15.69 32.92 15.69L32.92 15.69L32.92 15.69Q33.59 15.69 34.23 15.53L34.23 15.53L34.23 15.53Q34.87 15.38 35.51 15.00L35.51 15.00L35.66 16.58L35.66 16.58Q35.29 16.76 34.94 16.89L34.94 16.89L34.94 16.89Q34.58 17.02 34.23 17.10L34.23 17.10L34.23 17.10Q33.88 17.19 33.51 17.22L33.51 17.22L33.51 17.22Q33.14 17.26 32.74 17.26L32.74 17.26L32.74 17.26Q32.07 17.26 31.45 17.03L31.45 17.03L31.45 17.03Q30.83 16.80 30.36 16.35L30.36 16.35L30.36 16.35Q29.89 15.91 29.61 15.24L29.61 15.24L29.61 15.24Q29.33 14.58 29.33 13.71L29.33 13.71L29.33 13.71Q29.33 12.86 29.57 12.17L29.57 12.17L29.57 12.17Q29.80 11.48 30.25 11.00L30.25 11.00L30.25 11.00Q30.69 10.51 31.32 10.24L31.32 10.24L31.32 10.24Q31.95 9.98 32.74 9.98L32.74 9.98L32.74 9.98Q33.32 9.98 33.75 10.12L33.75 10.12L33.75 10.12Q34.19 10.26 34.50 10.50L34.50 10.50L34.50 10.50Q34.82 10.75 35.04 11.08L35.04 11.08L35.04 11.08Q35.25 11.41 35.38 11.80L35.38 11.80L35.38 11.80Q35.51 12.18 35.56 12.61L35.56 12.61L35.56 12.61Q35.62 13.03 35.62 13.45L35.62 13.45L35.62 13.58L35.62 13.58Q35.62 13.65 35.62 13.73L35.62 13.73L35.62 13.73Q35.62 13.82 35.62 13.89L35.62 13.89L35.62 14.01ZM32.65 11.42L32.65 11.42L32.65 11.42Q32.05 11.42 31.71 11.73L31.71 11.73L31.71 11.73Q31.36 12.05 31.25 12.78L31.25 12.78L33.88 12.78L33.88 12.78Q33.88 12.06 33.57 11.74L33.57 11.74L33.57 11.74Q33.26 11.42 32.65 11.42ZM40.63 15.68L40.63 15.68L40.63 15.68Q40.95 15.68 41.23 15.54L41.23 15.54L41.23 15.54Q41.52 15.40 41.74 15.13L41.74 15.13L41.74 15.13Q41.96 14.87 42.09 14.49L42.09 14.49L42.09 14.49Q42.22 14.11 42.22 13.64L42.22 13.64L42.22 13.64Q42.22 13.17 42.13 12.80L42.13 12.80L42.13 12.80Q42.04 12.42 41.87 12.16L41.87 12.16L41.87 12.16Q41.70 11.89 41.45 11.75L41.45 11.75L41.45 11.75Q41.21 11.61 40.90 11.61L40.90 11.61L40.90 11.61Q40.67 11.61 40.43 11.70L40.43 11.70L40.43 11.70Q40.20 11.80 39.97 11.99L39.97 11.99L39.97 11.99Q39.75 12.17 39.55 12.45L39.55 12.45L39.55 12.45Q39.35 12.73 39.21 13.09L39.21 13.09L39.21 15.04L39.21 15.04Q39.47 15.23 39.66 15.36L39.66 15.36L39.66 15.36Q39.85 15.48 40.00 15.56L40.00 15.56L40.00 15.56Q40.16 15.63 40.31 15.65L40.31 15.65L40.31 15.65Q40.46 15.68 40.63 15.68ZM39.38 20.44L37.30 20.44L37.30 13.77L37.30 13.77Q37.30 13.14 37.29 12.60L37.29 12.60L37.29 12.60Q37.28 12.05 37.24 11.60L37.24 11.60L37.24 11.60Q37.21 11.14 37.14 10.77L37.14 10.77L37.14 10.77Q37.07 10.40 36.96 10.12L36.96 10.12L38.83 10.12L38.83 10.12Q38.91 10.27 38.99 10.56L38.99 10.56L38.99 10.56Q39.06 10.86 39.11 11.28L39.11 11.28L39.11 11.28Q39.34 10.99 39.62 10.75L39.62 10.75L39.62 10.75Q39.90 10.51 40.21 10.34L40.21 10.34L40.21 10.34Q40.52 10.17 40.87 10.08L40.87 10.08L40.87 10.08Q41.22 9.98 41.59 9.98L41.59 9.98L41.59 9.98Q42.16 9.98 42.63 10.24L42.63 10.24L42.63 10.24Q43.10 10.49 43.43 10.95L43.43 10.95L43.43 10.95Q43.76 11.42 43.95 12.05L43.95 12.05L43.95 12.05Q44.13 12.68 44.13 13.43L44.13 13.43L44.13 13.43Q44.13 14.31 43.89 15.02L43.89 15.02L43.89 15.02Q43.65 15.72 43.24 16.22L43.24 16.22L43.24 16.22Q42.83 16.72 42.27 16.99L42.27 16.99L42.27 16.99Q41.71 17.26 41.08 17.26L41.08 17.26L41.08 17.26Q40.82 17.26 40.58 17.22L40.58 17.22L40.58 17.22Q40.34 17.17 40.12 17.09L40.12 17.09L40.12 17.09Q39.89 17.01 39.67 16.90L39.67 16.90L39.67 16.90Q39.45 16.79 39.21 16.65L39.21 16.65L39.21 18.12L39.21 18.12Q39.21 18.53 39.22 18.86L39.22 18.86L39.22 18.86Q39.23 19.19 39.25 19.47L39.25 19.47L39.25 19.47Q39.27 19.75 39.31 19.98L39.31 19.98L39.31 19.98Q39.34 20.22 39.38 20.44L39.38 20.44ZM47.65 17.09L45.74 17.09L45.74 12.89L45.74 12.89Q45.74 11.87 45.63 11.17L45.63 11.17L45.63 11.17Q45.51 10.47 45.40 10.12L45.40 10.12L47.28 10.12L47.28 10.12Q47.32 10.23 47.36 10.40L47.36 10.40L47.36 10.40Q47.40 10.58 47.43 10.77L47.43 10.77L47.43 10.77Q47.47 10.96 47.50 11.14L47.50 11.14L47.55 11.45L47.55 11.45Q47.80 11.09 48.08 10.82L48.08 10.82L48.08 10.82Q48.36 10.55 48.64 10.36L48.64 10.36L48.64 10.36Q48.92 10.17 49.20 10.08L49.20 10.08L49.20 10.08Q49.47 9.98 49.70 9.98L49.70 9.98L49.70 9.98Q50.18 9.98 50.52 10.19L50.52 10.19L50.52 10.19Q50.86 10.39 51.07 10.74L51.07 10.74L51.07 10.74Q51.29 11.09 51.39 11.56L51.39 11.56L51.39 11.56Q51.48 12.02 51.48 12.54L51.48 12.54L49.96 12.78L49.96 12.78Q49.92 12.32 49.73 12.03L49.73 12.03L49.73 12.03Q49.54 11.75 49.10 11.75L49.10 11.75L49.10 11.75Q48.93 11.75 48.72 11.90L48.72 11.90L48.72 11.90Q48.50 12.05 48.30 12.29L48.30 12.29L48.30 12.29Q48.09 12.53 47.92 12.84L47.92 12.84L47.92 12.84Q47.74 13.15 47.65 13.47L47.65 13.47L47.65 17.09ZM52.54 7.62L52.54 7.62L52.54 7.62Q52.54 7.36 52.63 7.14L52.63 7.14L52.63 7.14Q52.72 6.92 52.88 6.76L52.88 6.76L52.88 6.76Q53.04 6.60 53.26 6.51L53.26 6.51L53.26 6.51Q53.48 6.43 53.74 6.43L53.74 6.43L53.74 6.43Q54.00 6.43 54.22 6.51L54.22 6.51L54.22 6.51Q54.43 6.60 54.60 6.76L54.60 6.76L54.60 6.76Q54.76 6.92 54.84 7.14L54.84 7.14L54.84 7.14Q54.93 7.36 54.93 7.62L54.93 7.62L54.93 7.62Q54.93 7.89 54.84 8.11L54.84 8.11L54.84 8.11Q54.76 8.33 54.60 8.49L54.60 8.49L54.60 8.49Q54.43 8.65 54.22 8.73L54.22 8.73L54.22 8.73Q54.00 8.82 53.74 8.82L53.74 8.82L53.74 8.82Q53.48 8.82 53.26 8.73L53.26 8.73L53.26 8.73Q53.04 8.65 52.88 8.49L52.88 8.49L52.88 8.49Q52.72 8.33 52.63 8.11L52.63 8.11L52.63 8.11Q52.54 7.89 52.54 7.62ZM52.68 10.12L54.69 10.12L54.69 13.84L54.69 13.84Q54.69 14.17 54.70 14.62L54.70 14.62L54.70 14.62Q54.71 15.07 54.73 15.52L54.73 15.52L54.73 15.52Q54.75 15.98 54.77 16.40L54.77 16.40L54.77 16.40Q54.80 16.82 54.83 17.09L54.83 17.09L52.78 17.09L52.78 13.47L52.78 13.47Q52.78 12.97 52.78 12.48L52.78 12.48L52.78 12.48Q52.77 12.00 52.76 11.56L52.76 11.56L52.76 11.56Q52.75 11.13 52.73 10.76L52.73 10.76L52.73 10.76Q52.71 10.38 52.68 10.12L52.68 10.12ZM61.50 17.09L59.80 14.81L58.28 17.09L56.20 17.09L56.20 17.09Q56.48 16.72 56.69 16.45L56.69 16.45L56.69 16.45Q56.90 16.19 57.05 15.98L57.05 15.98L57.05 15.98Q57.21 15.77 57.34 15.60L57.34 15.60L57.34 15.60Q57.47 15.42 57.60 15.24L57.60 15.24L58.86 13.53L57.70 11.96L57.70 11.96Q57.52 11.73 57.38 11.54L57.38 11.54L57.38 11.54Q57.24 11.35 57.09 11.15L57.09 11.15L57.09 11.15Q56.93 10.94 56.73 10.70L56.73 10.70L56.73 10.70Q56.54 10.46 56.27 10.12L56.27 10.12L58.52 10.12L60.13 12.31L61.56 10.12L63.65 10.12L63.65 10.12Q63.38 10.46 63.18 10.72L63.18 10.72L63.18 10.72Q62.99 10.98 62.83 11.19L62.83 11.19L62.83 11.19Q62.67 11.40 62.53 11.59L62.53 11.59L62.53 11.59Q62.39 11.77 62.25 11.96L62.25 11.96L61.07 13.59L62.28 15.24L62.28 15.24Q62.43 15.45 62.58 15.64L62.58 15.64L62.58 15.64Q62.72 15.83 62.89 16.04L62.89 16.04L62.89 16.04Q63.06 16.26 63.27 16.51L63.27 16.51L63.27 16.51Q63.47 16.76 63.75 17.09L63.75 17.09L61.50 17.09Z"></path></g><!----><g data-v-423bf9ae="" id="cbad1b07-cd86-43ac-9241-b159b0d6a465" transform="matrix(1.0445899115668402,0,0,1.0445899115668402,-3.3902367962434496,-2.2360463828283343)" stroke="none" fill="white"><path d="M45.739 21.352c5.56 2.984 4.272 21.164 1.114 31.463l14.688 15.627 22.59 24.894s-4.906 6.827-9.532 1.86C69.968 90.231 54.75 74.549 54.75 74.549L34.326 56.464s-2.172-1.148-2.169-3.648c.005-2.496.867-19.7.226-24.908 0 0 1.438-1 3.544.25 0 0 1.327-2.653-13.195-10.359L6.915 9.519S4.298 7.866 5.639 5.002c1.253-2.672 4.159-2.127 5.115-1.469.954.659 13.079 6.756 13.079 6.756"></path><circle cx="94.372" cy="85.257" r="9.244"></circle><path d="M41.057 68.052s-2.048 4.38-4.798 4.883c-2.75.502-32.597-.668-32.597-.668s-.822-7.926 4.563-7.926c5.384 0 21.537-.385 21.537-.385l3.278-3.452 8.017 7.548zM29.411 42.476v8.339l-3.208 2.548s-3.542 2.37-5.63-1.332c-1.22-2.795 1.771-4.838 2.498-5.429.729-.59 6.34-4.126 6.34-4.126zM54.27 23.947s-2.696 1.479-3.651-1.088c-.615-2.004-1.516-3.514-2.79-4.2l-1.622-.82-.258-.129-.792-.398 3.559-9.244s2.787-5.456 9.433-.786c3.012 2.752 2.843 5.112 2.215 8.271-.863 4.352-6.094 8.394-6.094 8.394z"></path></g><!----></svg>